# xmcd CD database file
#
# Track frame offsets:
#	150
#	10195
#	33250
#	43600
#	58035
#	84477
#	110904
#	131832
#	153600
#	171312
#	183620
#	197690
#	210290
#	228682
#	251165
#	265940
#
# Disc length: 3736 seconds
#
# Revision: 0
# Processed by: cddbd v1.5.2PL0 Copyright (c) Steve Scherf et al.
# Submitted via: CDex 1.50
#
DISCID=e70e9610
DTITLE=Jazz and crooners - Les incontournables
DYEAR=1997
DGENRE=Jazz
TTITLE0=Dean Martin-You're nobody till someboby loves you
TTITLE1=Ella Fitzgerald-Mack the knife
TTITLE2=Louis Armstrong-Waht a wonderful world
TTITLE3=Nat King Cole-Unforgettable
TTITLE4=Sarah Vaughan-Misty
TTITLE5=Stan Getz and Charlie Byrd-Desafinado
TTITLE6=Duke Ellington-Take the train
TTITLE7=Oscar Peterson-Night train
TTITLE8=Dizzy Gillespie-This is the way
TTITLE9=Count Basie-Come fly with me
TTITLE10=Charlie Parker-April in Paris
TTITLE11=Miles Davis-Ascenseur pour l'échafaud
TTITLE12=Chet Baker-Born to be blue
TTITLE13=Dexter Gordon-The shadow of your smile
TTITLE14=Django Reinhardt-Nuages
TTITLE15=Sidney Bechet-Petite fleur
EXTD=YEAR: 1997
EXTT0=
EXTT1=
EXTT2=
EXTT3=
EXTT4=
EXTT5=
EXTT6=
EXTT7=
EXTT8=
EXTT9=
EXTT10=
EXTT11=
EXTT12=
EXTT13=
EXTT14=
EXTT15=
PLAYORDER=
